<svg>
  <symbol id="burger" width="49" height="36" viewBox="0 0 49 36" fill="none" xmlns="http://www.w3.org/2000/svg">
  <rect width="49" height="4" transform="matrix(-1 0 0 1 49 0)" fill="white"/>
  <path d="M38 16H0V20H38V16Z" fill="white"/>
  <path d="M33 32H0V36H33V32Z" fill="white"/>
  </symbol>

  <symbol id="header_clock" width="225" height="65" viewBox="0 0 225 65" fill="none" xmlns="http://www.w3.org/2000/svg">
  <ellipse cx="112.029" cy="32.5" rx="112.029" ry="32.5" fill="white"/>
  <path d="M71.9 27.5V20L76.7 17H83.6V38H75.8V25.1L71.9 27.5ZM86.4641 38V31.85L93.6641 28.1C95.6841 27.06 96.9641 26.32 97.5041 25.88C98.0441 25.42 98.3141 24.91 98.3141 24.35C98.3141 23.91 98.1241 23.53 97.7441 23.21C97.3841 22.87 96.8741 22.7 96.2141 22.7C95.3341 22.7 94.6741 23 94.2341 23.6C94.0541 23.84 93.9141 24.14 93.8141 24.5H86.3141C86.5941 23 87.1341 21.65 87.9341 20.45C89.7941 17.75 92.6541 16.4 96.5141 16.4C99.4741 16.4 101.814 17.12 103.534 18.56C105.254 19.98 106.114 21.71 106.114 23.75C106.114 24.67 105.924 25.54 105.544 26.36C105.164 27.18 104.704 27.86 104.164 28.4C103.644 28.92 103.034 29.4 102.334 29.84C101.634 30.28 101.044 30.61 100.564 30.83C100.104 31.03 99.6441 31.21 99.1841 31.37L98.6141 31.55L98.0141 31.7L97.5641 31.85V32.18L99.6641 31.85H106.114V38H86.4641ZM108.202 35.15C108.202 34.25 108.522 33.48 109.162 32.84C109.822 32.18 110.602 31.85 111.502 31.85C112.382 31.85 113.152 32.18 113.812 32.84C114.472 33.5 114.802 34.27 114.802 35.15C114.802 36.05 114.472 36.83 113.812 37.49C113.172 38.13 112.402 38.45 111.502 38.45C110.582 38.45 109.802 38.13 109.162 37.49C108.522 36.85 108.202 36.07 108.202 35.15ZM108.202 24.95C108.202 24.05 108.522 23.28 109.162 22.64C109.822 21.98 110.602 21.65 111.502 21.65C112.382 21.65 113.152 21.98 113.812 22.64C114.472 23.3 114.802 24.07 114.802 24.95C114.802 25.85 114.472 26.63 113.812 27.29C113.172 27.93 112.402 28.25 111.502 28.25C110.582 28.25 109.802 27.93 109.162 27.29C108.522 26.65 108.202 25.87 108.202 24.95ZM116.904 38V31.85L124.104 28.1C126.124 27.06 127.404 26.32 127.944 25.88C128.484 25.42 128.754 24.91 128.754 24.35C128.754 23.91 128.564 23.53 128.184 23.21C127.824 22.87 127.314 22.7 126.654 22.7C125.774 22.7 125.114 23 124.674 23.6C124.494 23.84 124.354 24.14 124.254 24.5H116.754C117.034 23 117.574 21.65 118.374 20.45C120.234 17.75 123.094 16.4 126.954 16.4C129.914 16.4 132.254 17.12 133.974 18.56C135.694 19.98 136.554 21.71 136.554 23.75C136.554 24.67 136.364 25.54 135.984 26.36C135.604 27.18 135.144 27.86 134.604 28.4C134.084 28.92 133.474 29.4 132.774 29.84C132.074 30.28 131.484 30.61 131.004 30.83C130.544 31.03 130.084 31.21 129.624 31.37L129.054 31.55L128.454 31.7L128.004 31.85V32.18L130.104 31.85H136.554V38H116.904ZM138.492 27.5V20L143.292 17H150.192V38H142.392V25.1L138.492 27.5Z" fill="black"/>
  <path d="M75.4544 47.472C74.9957 47.04 74.7664 46.5093 74.7664 45.88C74.7664 45.2507 74.9957 44.72 75.4544 44.288C75.9131 43.856 76.4971 43.64 77.2064 43.64C78.1397 43.64 78.8251 43.9547 79.2624 44.584C79.4544 44.8667 79.5824 45.1787 79.6464 45.52H77.7664C77.7397 45.4293 77.7024 45.3573 77.6544 45.304C77.5424 45.1547 77.3931 45.08 77.2064 45.08C77.0357 45.08 76.8997 45.1467 76.7984 45.28C76.6971 45.408 76.6464 45.608 76.6464 45.88C76.6464 46.152 76.6971 46.3547 76.7984 46.488C76.8997 46.616 77.0357 46.68 77.2064 46.68C77.3984 46.68 77.5477 46.608 77.6544 46.464C77.7024 46.4053 77.7397 46.3307 77.7664 46.24H79.6464C79.5824 46.5867 79.4544 46.9013 79.2624 47.184C78.8411 47.808 78.1557 48.12 77.2064 48.12C76.4971 48.12 75.9131 47.904 75.4544 47.472ZM80.2077 48V42.4H82.0477V44.36H82.1277C82.2023 44.2267 82.3037 44.1067 82.4317 44C82.7143 43.76 83.0263 43.64 83.3677 43.64C83.8423 43.64 84.213 43.7893 84.4797 44.088C84.7517 44.3813 84.8877 44.8053 84.8877 45.36V48H83.0477V45.68C83.0477 45.5147 83.0077 45.3867 82.9277 45.296C82.8477 45.2053 82.741 45.16 82.6077 45.16C82.4423 45.16 82.3063 45.2187 82.1997 45.336C82.0983 45.448 82.0477 45.6027 82.0477 45.8V48H80.2077ZM86.103 47.48C85.639 47.048 85.407 46.5147 85.407 45.88C85.407 45.2453 85.639 44.7147 86.103 44.288C86.5724 43.856 87.1804 43.64 87.927 43.64C88.6684 43.64 89.2737 43.856 89.743 44.288C90.2124 44.7147 90.447 45.2453 90.447 45.88C90.447 46.5147 90.2124 47.048 89.743 47.48C89.2737 47.9067 88.6684 48.12 87.927 48.12C87.1804 48.12 86.5724 47.9067 86.103 47.48ZM87.463 45.296C87.3457 45.4347 87.287 45.6293 87.287 45.88C87.287 46.1307 87.3457 46.328 87.463 46.472C87.5857 46.6107 87.7404 46.68 87.927 46.68C88.1137 46.68 88.2657 46.6107 88.383 46.472C88.5057 46.328 88.567 46.1307 88.567 45.88C88.567 45.6293 88.5057 45.4347 88.383 45.296C88.2657 45.152 88.1137 45.08 87.927 45.08C87.7404 45.08 87.5857 45.152 87.463 45.296ZM91.5405 47.48C91.0765 47.048 90.8445 46.5147 90.8445 45.88C90.8445 45.2453 91.0765 44.7147 91.5405 44.288C92.0099 43.856 92.6179 43.64 93.3645 43.64C94.1059 43.64 94.7112 43.856 95.1805 44.288C95.6499 44.7147 95.8845 45.2453 95.8845 45.88C95.8845 46.5147 95.6499 47.048 95.1805 47.48C94.7112 47.9067 94.1059 48.12 93.3645 48.12C92.6179 48.12 92.0099 47.9067 91.5405 47.48ZM92.9005 45.296C92.7832 45.4347 92.7245 45.6293 92.7245 45.88C92.7245 46.1307 92.7832 46.328 92.9005 46.472C93.0232 46.6107 93.1779 46.68 93.3645 46.68C93.5512 46.68 93.7032 46.6107 93.8205 46.472C93.9432 46.328 94.0045 46.1307 94.0045 45.88C94.0045 45.6293 93.9432 45.4347 93.8205 45.296C93.7032 45.152 93.5512 45.08 93.3645 45.08C93.1779 45.08 93.0232 45.152 92.9005 45.296ZM96.242 46.6H97.962C97.9674 46.6533 97.994 46.7067 98.042 46.76C98.1274 46.8667 98.274 46.92 98.482 46.92C98.722 46.92 98.842 46.8667 98.842 46.76C98.842 46.696 98.7994 46.6453 98.714 46.608C98.6287 46.5707 98.482 46.528 98.274 46.48C98.2474 46.4747 98.226 46.4693 98.21 46.464C98.05 46.4267 97.938 46.4 97.874 46.384C97.81 46.368 97.698 46.336 97.538 46.288C97.378 46.24 97.2607 46.1947 97.186 46.152C97.1114 46.1093 97.0127 46.0507 96.89 45.976C96.7727 45.896 96.6847 45.8133 96.626 45.728C96.5674 45.6427 96.514 45.5387 96.466 45.416C96.4234 45.288 96.402 45.1493 96.402 45C96.402 44.6107 96.5754 44.288 96.922 44.032C97.2687 43.7707 97.7754 43.64 98.442 43.64C99.2634 43.64 99.8794 43.888 100.29 44.384C100.471 44.608 100.589 44.8533 100.642 45.12H98.922C98.906 45.0773 98.8847 45.032 98.858 44.984C98.7834 44.888 98.6847 44.84 98.562 44.84C98.3754 44.84 98.282 44.8933 98.282 45C98.282 45.0587 98.33 45.1067 98.426 45.144C98.5274 45.1813 98.69 45.2213 98.914 45.264C99.058 45.296 99.1434 45.3173 99.17 45.328C99.202 45.3333 99.2874 45.3547 99.426 45.392C99.57 45.4293 99.666 45.4587 99.714 45.48C99.762 45.5013 99.8447 45.5387 99.962 45.592C100.079 45.64 100.162 45.6853 100.21 45.728C100.258 45.7707 100.322 45.8293 100.402 45.904C100.487 45.9733 100.546 46.048 100.578 46.128C100.615 46.2027 100.647 46.2907 100.674 46.392C100.706 46.4933 100.722 46.6027 100.722 46.72C100.722 47.1147 100.533 47.448 100.154 47.72C99.7807 47.9867 99.2367 48.12 98.522 48.12C97.6207 48.12 96.9754 47.8667 96.586 47.36C96.4154 47.1467 96.3007 46.8933 96.242 46.6ZM101.767 47.472C101.308 47.04 101.079 46.5093 101.079 45.88C101.079 45.2507 101.308 44.72 101.767 44.288C102.226 43.856 102.81 43.64 103.519 43.64C104.228 43.64 104.812 43.856 105.271 44.288C105.73 44.72 105.959 45.2507 105.959 45.88V46H102.959C102.959 46.56 103.146 46.84 103.519 46.84C103.674 46.84 103.81 46.7813 103.927 46.664C103.98 46.6 104.018 46.5387 104.039 46.48H105.919C105.823 46.7893 105.671 47.064 105.463 47.304C104.983 47.848 104.335 48.12 103.519 48.12C102.81 48.12 102.226 47.904 101.767 47.472ZM102.999 45.48H104.039C104.034 45.3947 104.007 45.3013 103.959 45.2C103.858 45.0133 103.711 44.92 103.519 44.92C103.327 44.92 103.18 45.0133 103.079 45.2C103.031 45.3013 103.004 45.3947 102.999 45.48ZM108.482 43.76H110.322L110.922 46.48H111.042L111.642 43.76H113.522L112.01 49.52H110.162L110.602 48H109.522L108.482 43.76ZM114.416 47.48C113.952 47.048 113.72 46.5147 113.72 45.88C113.72 45.2453 113.952 44.7147 114.416 44.288C114.885 43.856 115.493 43.64 116.24 43.64C116.981 43.64 117.586 43.856 118.056 44.288C118.525 44.7147 118.76 45.2453 118.76 45.88C118.76 46.5147 118.525 47.048 118.056 47.48C117.586 47.9067 116.981 48.12 116.24 48.12C115.493 48.12 114.885 47.9067 114.416 47.48ZM115.776 45.296C115.658 45.4347 115.6 45.6293 115.6 45.88C115.6 46.1307 115.658 46.328 115.776 46.472C115.898 46.6107 116.053 46.68 116.24 46.68C116.426 46.68 116.578 46.6107 116.696 46.472C116.818 46.328 116.88 46.1307 116.88 45.88C116.88 45.6293 116.818 45.4347 116.696 45.296C116.578 45.152 116.426 45.08 116.24 45.08C116.053 45.08 115.898 45.152 115.776 45.296ZM119.317 46.4V43.76H121.157V46.08C121.157 46.2453 121.197 46.3733 121.277 46.464C121.357 46.5547 121.464 46.6 121.597 46.6C121.762 46.6 121.896 46.544 121.997 46.432C122.104 46.3147 122.157 46.1573 122.157 45.96V43.76H123.997V48H122.157V47.4H122.077C122.002 47.5333 121.901 47.6533 121.773 47.76C121.49 48 121.178 48.12 120.837 48.12C120.362 48.12 119.989 47.9733 119.717 47.68C119.45 47.3813 119.317 46.9547 119.317 46.4ZM124.715 48V43.76H126.475V44.4H126.555C126.603 44.272 126.673 44.152 126.763 44.04C126.961 43.8 127.211 43.68 127.515 43.68H127.875V45.44H127.107C126.91 45.44 126.769 45.4827 126.683 45.568C126.598 45.648 126.555 45.7787 126.555 45.96V48H124.715ZM130.559 48V42.4H132.399V46.76H133.359V48H130.559ZM134.337 47.48C133.873 47.048 133.641 46.5147 133.641 45.88C133.641 45.2453 133.873 44.7147 134.337 44.288C134.807 43.856 135.415 43.64 136.161 43.64C136.903 43.64 137.508 43.856 137.977 44.288C138.447 44.7147 138.681 45.2453 138.681 45.88C138.681 46.5147 138.447 47.048 137.977 47.48C137.508 47.9067 136.903 48.12 136.161 48.12C135.415 48.12 134.807 47.9067 134.337 47.48ZM135.697 45.296C135.58 45.4347 135.521 45.6293 135.521 45.88C135.521 46.1307 135.58 46.328 135.697 46.472C135.82 46.6107 135.975 46.68 136.161 46.68C136.348 46.68 136.5 46.6107 136.617 46.472C136.74 46.328 136.801 46.1307 136.801 45.88C136.801 45.6293 136.74 45.4347 136.617 45.296C136.5 45.152 136.348 45.08 136.161 45.08C135.975 45.08 135.82 45.152 135.697 45.296ZM139.775 47.48C139.311 47.048 139.079 46.5147 139.079 45.88C139.079 45.2453 139.311 44.7147 139.775 44.288C140.244 43.856 140.852 43.64 141.599 43.64C142.34 43.64 142.946 43.856 143.415 44.288C143.884 44.7147 144.119 45.2453 144.119 45.88C144.119 46.5147 143.884 47.048 143.415 47.48C142.946 47.9067 142.34 48.12 141.599 48.12C140.852 48.12 140.244 47.9067 139.775 47.48ZM141.135 45.296C141.018 45.4347 140.959 45.6293 140.959 45.88C140.959 46.1307 141.018 46.328 141.135 46.472C141.258 46.6107 141.412 46.68 141.599 46.68C141.786 46.68 141.938 46.6107 142.055 46.472C142.178 46.328 142.239 46.1307 142.239 45.88C142.239 45.6293 142.178 45.4347 142.055 45.296C141.938 45.152 141.786 45.08 141.599 45.08C141.412 45.08 141.258 45.152 141.135 45.296ZM144.676 48V42.4H146.516V45.12H146.796L147.436 43.76H149.316L148.316 45.8L149.436 48H147.556L146.876 46.64H146.516V48H144.676Z" fill="black"/>
  </symbol>

  <symbol id="vk" width="26" height="26" viewBox="0 0 26 26" fill="none" xmlns="http://www.w3.org/2000/svg">
  <path d="M12.7553 0.303894C5.71098 0.303894 0 6.01462 0 13.0592C0 20.1038 5.71098 25.8145 12.7553 25.8145C19.7996 25.8145 25.5106 20.1038 25.5106 13.0592C25.5106 6.01462 19.7996 0.303894 12.7553 0.303894ZM19.2255 14.4387C19.82 15.0194 20.4489 15.5659 20.9826 16.2066C21.2191 16.49 21.442 16.7831 21.6116 17.1127C21.8538 17.5827 21.6351 18.0982 21.2144 18.1261L18.6012 18.1256C17.9263 18.1814 17.3892 17.9092 16.9364 17.4478C16.575 17.0801 16.2396 16.6873 15.8915 16.3071C15.7492 16.151 15.5994 16.0041 15.4209 15.8885C15.0647 15.6567 14.7552 15.7277 14.5511 16.0999C14.3431 16.4785 14.2956 16.8982 14.2758 17.3197C14.2473 17.9358 14.0615 18.0969 13.4432 18.1258C12.1222 18.1877 10.8687 17.9872 9.70369 17.3212C8.67595 16.7338 7.88049 15.9046 7.18734 14.9659C5.83756 13.1359 4.80382 11.1274 3.875 9.06127C3.66596 8.59595 3.81889 8.34698 4.33224 8.33732C5.18511 8.32088 6.03799 8.32297 6.89086 8.33654C7.23797 8.34202 7.46763 8.54062 7.60099 8.86815C8.06187 10.0021 8.62689 11.081 9.33492 12.0816C9.52361 12.348 9.71621 12.6137 9.9905 12.8019C10.2932 13.0096 10.5239 12.941 10.6667 12.603C10.758 12.3882 10.7974 12.1586 10.8173 11.9284C10.8851 11.14 10.8932 10.3518 10.7758 9.56653C10.7027 9.07511 10.4263 8.75776 9.93648 8.66485C9.68698 8.61761 9.72352 8.52522 9.84488 8.38273C10.0555 8.13637 10.2528 7.98396 10.6471 7.98396L13.5996 7.98344C14.0649 8.07478 14.1693 8.28356 14.2324 8.75228L14.235 12.0333C14.2296 12.2147 14.3261 12.7523 14.6518 12.871C14.9128 12.9572 15.0851 12.7479 15.2411 12.5827C15.9492 11.8313 16.4536 10.9445 16.9054 10.0266C17.1048 9.62186 17.2767 9.20299 17.4438 8.78333C17.568 8.47303 17.7611 8.32036 18.1114 8.32558L20.9545 8.32897C21.0382 8.32897 21.1233 8.32975 21.2063 8.34411C21.6855 8.42605 21.8167 8.63223 21.6685 9.09964C21.4352 9.83403 20.9819 10.4458 20.5387 11.0591C20.0637 11.7157 19.5572 12.3493 19.0869 13.0088C18.6547 13.6117 18.6889 13.9152 19.2255 14.4387Z" fill="#CACACA"/>
  </symbol>

  <symbol id="instagram" width="26" height="26" viewBox="0 0 26 26" fill="none" xmlns="http://www.w3.org/2000/svg">
  <g clip-path="url(#clip0)">
  <path d="M10.7164 13.0592C10.7164 14.4076 11.8094 15.5007 13.1578 15.5007C14.5062 15.5007 15.5992 14.4076 15.5992 13.0592C15.5992 11.7108 14.5062 10.6178 13.1578 10.6178C11.8094 10.6178 10.7164 11.7108 10.7164 13.0592Z" fill="#CACACA"/>
  <path d="M7.44806 8.73951C7.56542 8.42149 7.75265 8.13363 7.99594 7.89735C8.23222 7.65406 8.51989 7.46682 8.83811 7.34946C9.09619 7.24923 9.48389 7.12992 10.198 7.09741C10.9705 7.06219 11.2021 7.0546 13.1577 7.0546C15.1136 7.0546 15.3452 7.06199 16.1175 7.09722C16.8316 7.12992 17.2195 7.24923 17.4774 7.34946C17.7956 7.46682 18.0834 7.65406 18.3195 7.89735C18.5628 8.13363 18.7501 8.42129 18.8676 8.73951C18.9678 8.99759 19.0872 9.38549 19.1197 10.0996C19.1549 10.8719 19.1625 11.1035 19.1625 13.0593C19.1625 15.015 19.1549 15.2466 19.1197 16.0191C19.0872 16.7332 18.9678 17.1209 18.8676 17.379C18.7501 17.6972 18.563 17.9849 18.3197 18.2211C18.0834 18.4644 17.7958 18.6517 17.4776 18.769C17.2195 18.8694 16.8316 18.9888 16.1175 19.0213C15.3452 19.0565 15.1138 19.0639 13.1579 19.0639C11.2019 19.0639 10.9703 19.0565 10.1982 19.0213C9.48409 18.9888 9.09619 18.8694 8.83811 18.769C8.19933 18.5226 7.69446 18.0177 7.44806 17.379C7.34782 17.1209 7.22851 16.7332 7.19582 16.0191C7.16059 15.2466 7.15319 15.015 7.15319 13.0593C7.15319 11.1035 7.16059 10.8719 7.19582 10.0996C7.22832 9.38549 7.34763 8.99759 7.44806 8.73951ZM13.1577 16.8202C15.235 16.8202 16.919 15.1364 16.919 13.0591C16.919 10.9819 15.235 9.2981 13.1577 9.2981C11.0806 9.2981 9.3967 10.9819 9.3967 13.0591C9.3967 15.1364 11.0806 16.8202 13.1577 16.8202ZM9.248 10.0284C9.73341 10.0284 10.127 9.63481 10.127 9.1494C10.127 8.664 9.73341 8.27045 9.248 8.27045C8.76259 8.27045 8.36905 8.664 8.36905 9.1494C8.36924 9.63481 8.76259 10.0284 9.248 10.0284Z" fill="#CACACA"/>
  <path d="M13.1578 0.303894C20.2013 0.303894 25.9131 6.01571 25.9131 13.0592C25.9131 20.1027 20.2013 25.8145 13.1578 25.8145C6.1143 25.8145 0.402479 20.1027 0.402479 13.0592C0.402479 6.01571 6.1143 0.303894 13.1578 0.303894ZM5.87763 16.0789C5.91305 16.8586 6.03703 17.3909 6.21804 17.8568C6.59854 18.8407 7.37628 19.6184 8.36014 19.9989C8.82589 20.1799 9.3584 20.3037 10.1379 20.3393C10.9189 20.375 11.1685 20.3835 13.1576 20.3835C15.1469 20.3835 15.3962 20.375 16.1775 20.3393C16.957 20.3037 17.4895 20.1799 17.9552 19.9989C18.4441 19.815 18.8867 19.5268 19.2526 19.1541C19.6252 18.7883 19.9134 18.3456 20.0973 17.8568C20.2783 17.3911 20.4023 16.8586 20.4377 16.0791C20.4737 15.2978 20.4821 15.0483 20.4821 13.0592C20.4821 11.0701 20.4737 10.8206 20.4379 10.0395C20.4025 9.25982 20.2787 8.7275 20.0977 8.26156C19.9138 7.77284 19.6254 7.33005 19.2526 6.96434C18.8869 6.59163 18.4441 6.30338 17.9554 6.11945C17.4895 5.93845 16.9572 5.81466 16.1775 5.77904C15.3964 5.74343 15.1469 5.73486 13.1578 5.73486C11.1687 5.73486 10.9191 5.74343 10.1381 5.77924C9.3584 5.81466 8.82609 5.93845 8.36014 6.11926C7.87142 6.30318 7.42864 6.59163 7.06273 6.96434C6.69021 7.33025 6.40177 7.77284 6.21804 8.26156C6.03684 8.7275 5.91305 9.25982 5.87744 10.0395C5.84182 10.8206 5.83345 11.0701 5.83345 13.0592C5.83345 15.0483 5.84182 15.2978 5.87763 16.0789Z" fill="#CACACA"/>
  </g>
  <defs>
  <clipPath id="clip0">
  <rect width="25.5106" height="25.5106" fill="white" transform="matrix(-1 0 0 1 25.9131 0.303894)"/>
  </clipPath>
  </defs>
  </symbol>

  <symbol id="fb" width="27" height="26" viewBox="0 0 27 26" fill="none" xmlns="http://www.w3.org/2000/svg">
  <path d="M13.5603 0.355049C6.54493 0.355049 0.805054 6.10518 0.805054 13.1872C0.805054 19.5905 5.47349 24.9052 11.5705 25.8657V16.9011H8.33067V13.1872H11.5705V10.357C11.5705 7.14251 13.4711 5.37521 16.392 5.37521C17.7823 5.37521 19.2364 5.61853 19.2364 5.61853V8.78175H17.6293C16.0476 8.78175 15.5502 9.76785 15.5502 10.7796V13.1872H19.0961L18.5221 16.9011H15.5502V25.8657C18.5559 25.3891 21.2929 23.8493 23.267 21.5243C25.2412 19.1994 26.3225 16.2424 26.3156 13.1872C26.3156 6.10518 20.5758 0.355049 13.5603 0.355049Z" fill="#CACACA"/>
  </symbol>

  <symbol id="body_clock" width="64" height="19" viewBox="0 0 64 19" fill="none" xmlns="http://www.w3.org/2000/svg">
  <path d="M0.72 9.6V3.6L4.56 1.2H10.08V18H3.84V7.68L0.72 9.6ZM12.3713 18V13.08L18.1313 10.08C19.7473 9.248 20.7713 8.656 21.2033 8.304C21.6353 7.936 21.8513 7.528 21.8513 7.08C21.8513 6.728 21.6993 6.424 21.3953 6.168C21.1073 5.896 20.6993 5.76 20.1713 5.76C19.4673 5.76 18.9393 6 18.5872 6.48C18.4433 6.672 18.3313 6.912 18.2513 7.2H12.2513C12.4753 6 12.9073 4.92 13.5473 3.96C15.0353 1.8 17.3233 0.719999 20.4113 0.719999C22.7793 0.719999 24.6513 1.296 26.0273 2.448C27.4033 3.584 28.0913 4.968 28.0913 6.6C28.0913 7.336 27.9393 8.032 27.6353 8.688C27.3313 9.344 26.9633 9.888 26.5312 10.32C26.1153 10.736 25.6273 11.12 25.0673 11.472C24.5073 11.824 24.0353 12.088 23.6512 12.264C23.2833 12.424 22.9153 12.568 22.5473 12.696L22.0913 12.84L21.6113 12.96L21.2513 13.08V13.344L22.9313 13.08H28.0913V18H12.3713ZM29.7619 15.72C29.7619 15 30.0179 14.384 30.5299 13.872C31.0579 13.344 31.6819 13.08 32.4019 13.08C33.1059 13.08 33.7219 13.344 34.2499 13.872C34.7779 14.4 35.0419 15.016 35.0419 15.72C35.0419 16.44 34.7779 17.064 34.2499 17.592C33.7379 18.104 33.1219 18.36 32.4019 18.36C31.6659 18.36 31.0419 18.104 30.5299 17.592C30.0179 17.08 29.7619 16.456 29.7619 15.72ZM29.7619 7.56C29.7619 6.84 30.0179 6.224 30.5299 5.712C31.0579 5.184 31.6819 4.92 32.4019 4.92C33.1059 4.92 33.7219 5.184 34.2499 5.712C34.7779 6.24 35.0419 6.856 35.0419 7.56C35.0419 8.28 34.7779 8.904 34.2499 9.432C33.7379 9.944 33.1219 10.2 32.4019 10.2C31.6659 10.2 31.0419 9.944 30.5299 9.432C30.0179 8.92 29.7619 8.296 29.7619 7.56ZM36.7228 18V13.08L42.4828 10.08C44.0988 9.248 45.1228 8.656 45.5548 8.304C45.9868 7.936 46.2028 7.528 46.2028 7.08C46.2028 6.728 46.0508 6.424 45.7468 6.168C45.4588 5.896 45.0508 5.76 44.5228 5.76C43.8188 5.76 43.2908 6 42.9388 6.48C42.7948 6.672 42.6828 6.912 42.6028 7.2H36.6028C36.8268 6 37.2588 4.92 37.8988 3.96C39.3868 1.8 41.6748 0.719999 44.7628 0.719999C47.1308 0.719999 49.0028 1.296 50.3788 2.448C51.7548 3.584 52.4428 4.968 52.4428 6.6C52.4428 7.336 52.2908 8.032 51.9868 8.688C51.6828 9.344 51.3148 9.888 50.8828 10.32C50.4668 10.736 49.9788 11.12 49.4188 11.472C48.8588 11.824 48.3868 12.088 48.0028 12.264C47.6348 12.424 47.2668 12.568 46.8988 12.696L46.4428 12.84L45.9628 12.96L45.6028 13.08V13.344L47.2828 13.08H52.4428V18H36.7228ZM53.9934 9.6V3.6L57.8334 1.2H63.3534V18H57.1134V7.68L53.9934 9.6Z" fill="white"/>
  </symbol>

  <symbol id="x" width="36" height="36" viewBox="0 0 36 36" fill="none" xmlns="http://www.w3.org/2000/svg">
  <rect width="46.4616" height="3.79279" transform="matrix(-0.716354 -0.697737 -0.716354 0.697737 36 32.418)" fill="white"/>
  <path d="M33.2831 0.935638L0.000115673 33.3536L2.71709 36L36.0001 3.58201L33.2831 0.935638Z" fill="white"/>
  </symbol>
</svg>